<svg xmlns="http://www.w3.org/2000/svg" viewBox="0 0 1280 720" width="1280" height="720">
  <defs>
    <linearGradient id="bg" x1="0%" y1="0%" x2="100%" y2="100%">
      <stop offset="0%" stop-color="#020617" />
      <stop offset="50%" stop-color="#0f172a" />
      <stop offset="100%" stop-color="#020617" />
    </linearGradient>
    <linearGradient id="cyanPurple" x1="0%" y1="0%" x2="100%" y2="100%">
      <stop offset="0%" stop-color="#00f0ff" />
      <stop offset="50%" stop-color="#3b82f6" />
      <stop offset="100%" stop-color="#a855f7" />
    </linearGradient>
  </defs>
  <rect width="1280" height="720" fill="url(#bg)" />
  <!-- Navigation Header Bar -->
  <rect x="0" y="0" width="1280" height="68" fill="#0b0f19" stroke="#1e293b" stroke-width="1" />
  <circle cx="48" cy="34" r="18" fill="url(#cyanPurple)" />
  <text x="78" y="40" fill="#ffffff" font-family="system-ui, sans-serif" font-size="20" font-weight="800">NEXORA</text>
  <text x="175" y="40" fill="#94a3b8" font-family="system-ui, sans-serif" font-size="14" font-weight="500">By Alakh Shukla</text>

  <!-- Central Command Box -->
  <rect x="180" y="110" width="920" height="190" rx="16" fill="#0f172a" stroke="#334155" stroke-width="1.5" />
  <text x="210" y="155" fill="#f8fafc" font-family="system-ui, sans-serif" font-size="18" font-weight="600">What would you like to build or orchestrate across frontier models?</text>
  <rect x="210" y="240" width="130" height="38" rx="10" fill="#0284c7" />
  <text x="235" y="264" fill="#ffffff" font-family="system-ui, sans-serif" font-size="13" font-weight="700">Presentation</text>
  <rect x="355" y="240" width="110" height="38" rx="10" fill="#1e293b" />
  <text x="382" y="264" fill="#94a3b8" font-family="system-ui, sans-serif" font-size="13" font-weight="600">Code</text>
  <rect x="480" y="240" width="110" height="38" rx="10" fill="#1e293b" />
  <text x="507" y="264" fill="#94a3b8" font-family="system-ui, sans-serif" font-size="13" font-weight="600">Compare</text>
  <rect x="605" y="240" width="110" height="38" rx="10" fill="#1e293b" />
  <text x="632" y="264" fill="#94a3b8" font-family="system-ui, sans-serif" font-size="13" font-weight="600">Research</text>

  <rect x="940" y="235" width="140" height="48" rx="12" fill="url(#cyanPurple)" />
  <text x="965" y="265" fill="#ffffff" font-family="system-ui, sans-serif" font-size="15" font-weight="800">EXECUTE</text>

  <!-- Multi-Model Comparison Cards -->
  <rect x="180" y="330" width="285" height="340" rx="14" fill="#090d16" stroke="#1e293b" stroke-width="1" />
  <text x="205" y="370" fill="#38bdf8" font-family="system-ui, sans-serif" font-size="16" font-weight="700">Google Gemini</text>
  <text x="205" y="395" fill="#64748b" font-family="system-ui, sans-serif" font-size="12">gemini-2.5-flash • Multimodal</text>
  <line x1="205" y1="415" x2="440" y2="415" stroke="#1e293b" stroke-width="1" />
  <rect x="205" y="435" width="235" height="12" rx="4" fill="#334155" />
  <rect x="205" y="460" width="200" height="12" rx="4" fill="#334155" />
  <rect x="205" y="485" width="220" height="12" rx="4" fill="#334155" />

  <rect x="498" y="330" width="285" height="340" rx="14" fill="#090d16" stroke="#1e293b" stroke-width="1" />
  <text x="523" y="370" fill="#a855f7" font-family="system-ui, sans-serif" font-size="16" font-weight="700">Anthropic Claude</text>
  <text x="523" y="395" fill="#64748b" font-family="system-ui, sans-serif" font-size="12">claude-3-7-sonnet • Reasoning</text>
  <line x1="523" y1="415" x2="758" y2="415" stroke="#1e293b" stroke-width="1" />
  <rect x="523" y="435" width="235" height="12" rx="4" fill="#334155" />
  <rect x="523" y="460" width="180" height="12" rx="4" fill="#334155" />
  <rect x="523" y="485" width="210" height="12" rx="4" fill="#334155" />

  <rect x="815" y="330" width="285" height="340" rx="14" fill="#090d16" stroke="#1e293b" stroke-width="1" />
  <text x="840" y="370" fill="#10b981" font-family="system-ui, sans-serif" font-size="16" font-weight="700">OpenAI ChatGPT</text>
  <text x="840" y="395" fill="#64748b" font-family="system-ui, sans-serif" font-size="12">gpt-4o • Direct Synthesis</text>
  <line x1="840" y1="415" x2="1075" y2="415" stroke="#1e293b" stroke-width="1" />
  <rect x="840" y="435" width="235" height="12" rx="4" fill="#334155" />
  <rect x="840" y="460" width="190" height="12" rx="4" fill="#334155" />
  <rect x="840" y="485" width="215" height="12" rx="4" fill="#334155" />
</svg>
